<?xml version="1.0" encoding="utf-8"?>
<svg width="800px" height="800px" viewBox="0 0 72 72" id="emoji" xmlns="http://www.w3.org/2000/svg">
  <g id="color" style="">
    <path fill="#FCEA2B" stroke="none" d="M51.5334,37.3844L35.2339,21.0847c6.2853-6.2853,8.5839,1.4216,15.9401-5.9347l1.5737-1.5734 c1.738-1.7383,4.5563-1.7383,6.2938,0c1.7383,1.7377,1.7383,4.5561,0.0005,6.2938l-1.5739,1.574 C50.112,28.8005,57.8188,31.0989,51.5334,37.3844z"/>
    <path fill="#F1B31C" stroke="none" d="M53.2398,16.9676l1.6272-1.5189c0.8839-0.8249,1.3516-1.9262,1.4039-3.0457 c1.1571,0.0258,2.303,0.4951,3.1547,1.4082c1.6774,1.7965,1.5802,4.6134-0.2165,6.29l-1.6272,1.5189 c-7.6054,7.098,0.0176,9.6608-6.4808,15.7258l-6.7713-7.1008C50.8282,24.18,45.6344,24.0656,53.2398,16.9676z"/>
    <path fill="#92D3F5" stroke="none" d="M 42.838 48.385 L 30.737 58.921 C 28.644 60.965 25.219 60.965 23.126 58.921 L 13.091 49.123 C 10.998 47.079 10.998 43.735 13.091 41.691 L 17.607 37.282 L 26.683 28.353 L 19.251 34.844 C 21.344 32.8 27.144 26.858 29.237 28.902 L 44.045 44.801 C 44.586 48.951 48.104 42.25 42.838 48.385 Z"/>
    <path fill="#61B2E4" stroke="none" d="M 16.21 51.938 C 18.288 53.982 21.688 53.982 23.766 51.938 L 34.748 41.788 C 36.826 39.744 35.826 36.4 33.748 34.356 L 32.061 31.713 L 42.612 43.008 C 48.094 48.006 39.917 51.843 37.839 53.887 L 31.041 59.093 C 28.963 61.137 25.563 61.137 23.485 59.093 L 13.522 49.295 C 13.522 49.295 13.522 49.294 13.521 49.293 L 16.21 51.938 Z"/>
  </g>
  <g id="line" style="">
    <path fill="none" stroke="#000000" stroke-linejoin="round" stroke-miterlimit="10" stroke-width="2" d="M51.5334,37.3844 L35.2339,21.0847c6.2853-6.2853,8.5839,1.4216,15.9401-5.9347l1.5737-1.5734c1.738-1.7383,4.5563-1.7383,6.2938,0 c1.7383,1.7377,1.7383,4.5561,0.0005,6.2938l-1.5739,1.574C50.112,28.8005,57.8188,31.0989,51.5334,37.3844z"/>
    <path fill="none" stroke="#000000" stroke-miterlimit="10" stroke-width="2" d="M57.5208,12.5842 c0.0079,0.0032,0.0162,0.0042,0.024,0.0072c0.2369,0.0945,0.4637,0.218,0.6847,0.3549c0.034,0.021,0.0715,0.0332,0.105,0.0552 c0.2499,0.1643,0.4872,0.3553,0.7069,0.5752c0.4346,0.4343,0.7605,0.9363,0.9778,1.472c0.3259,0.8036,0.4075,1.6832,0.2446,2.5248 c-0.1629,0.8417-0.5703,1.6453-1.2219,2.2969l-1.5739,1.5741c-2.2988,2.2987-3.1266,4.1036-3.3701,5.6906 c-0.0487,0.3174-0.074,0.6261-0.0831,0.9282c-0.0181,0.6044,0.0289,1.1826,0.0843,1.7527c0.0692,0.7124,0.1515,1.4117,0.136,2.1326 c-0.0062,0.2883-0.028,0.5801-0.0726,0.8774c-0.1337,0.8921-0.472,1.8351-1.2065,2.8884c-0.2402,0.3442-0.524,0.7008-0.8555,1.0708 c-0.0368,1.3615-0.5595,2.7123-1.5927,3.7454L32.02,59.0186c-2.1425,2.1426-5.6482,2.1426-7.7905,0L13.9584,48.7478l0,0 l-0.1794-0.1794c-2.1425-2.1426-2.1425-5.6484,0-7.7908l4.6223-4.6221l4.6221-4.6221l4.6221-4.6219l4.6217-4.6217 c0.9285-0.9285,2.115-1.4297,3.3335-1.5535c6.0092-5.6279,8.3631,1.624,15.5734-5.5863l1.5737-1.5734 C54.0384,12.2857,55.9237,11.958,57.5208,12.5842z"/>
    <line x1="34.0213" x2="27.0213" y1="35.0213" y2="28.0213" fill="none" stroke="#000000" stroke-linecap="round" stroke-linejoin="round" stroke-miterlimit="10" stroke-width="2"/>
    <line x1="29.5213" x2="22.5213" y1="39.5213" y2="32.5213" fill="none" stroke="#000000" stroke-linecap="round" stroke-linejoin="round" stroke-miterlimit="10" stroke-width="2"/>
    <line x1="24.5213" x2="17.5213" y1="44.5213" y2="37.5213" fill="none" stroke="#000000" stroke-linecap="round" stroke-linejoin="round" stroke-miterlimit="10" stroke-width="2"/>
  </g>
</svg>