<?xml version="1.0" encoding="utf-8"?>
<svg height="100%" width="100%" version="1.1" id="_x36_" viewBox="-10 -10 532 532" fill="#000000" xmlns="http://www.w3.org/2000/svg">
  <defs/>
  <path style="fill: none; stroke-width: 16px; stroke: rgb(255, 255, 255);" d="M 512 403.841 C 512 448.23 476.006 484.225 431.602 484.225 L 80.391 484.225 C 76.476 484.225 54.328 484.38 50.563 483.839 M 390.29 128.083 C 394.952 136.214 397.16 153.994 397.16 162.034 C 397.16 177.021 393.048 191.043 385.904 203.046 C 426.14 207.452 457.448 241.542 457.448 282.942 C 457.448 298.236 453.164 312.539 445.747 324.715 C 483.394 331.4 512 364.275 512 403.841"/>
  <path style="fill: none; stroke-width: 16px; stroke: rgb(255, 255, 255);" d="M 0 403.841 C 0 364.275 28.595 331.4 66.247 324.715 C 58.822 312.54 54.549 298.237 54.549 282.942 C 54.549 241.542 85.854 207.452 126.082 203.046 C 118.949 191.042 114.834 177.02 114.834 162.034 C 114.834 117.644 150.832 81.65 195.222 81.65 L 198.614 81.65 C 189.659 36.441 220.033 13.642 231.461 6.024 C 251.73 -7.489 273.58 4.744 264.768 13.384 C 234.84 42.766 280.753 76.64 287.955 81.65 L 316.762 81.65 C 338.225 81.65 357.724 90.06 372.143 103.764 L 33.807 469.359 C 13.345 454.787 0 430.87 0 403.841 Z"/>
  <line style="fill: rgb(216, 216, 216); stroke: rgb(255, 255, 255); stroke-width: 16px;" x1="10.544" y1="493.245" x2="420.585" y2="51.73"/>
</svg>