<?xml version="1.0" encoding="utf-8"?>
<svg height="800px" width="800px" version="1.1" id="Layer_1" viewBox="0 0 512 512" xmlns="http://www.w3.org/2000/svg">
  <defs/>
  <path d="M486.347,230.347c0-43.479-20.623-95.141-61.296-153.551C395.077,33.75,365.567,3.651,364.325,2.391&#10;&#9;C362.818,0.862,360.76,0,358.614,0s-4.204,0.862-5.711,2.39c-1.242,1.26-30.752,31.36-60.726,74.405&#10;&#9;c-8.962,12.869-16.946,25.41-23.955,37.609c-34.787-46.084-66.08-77.52-66.411-77.852c-1.503-1.503-3.542-2.347-5.668-2.347&#10;&#9;s-4.165,0.844-5.668,2.348c-0.412,0.41-41.576,41.775-82.123,99.393c-54.874,77.978-82.697,147.14-82.697,205.565&#10;&#9;c0,94.007,76.48,170.489,170.489,170.489c88.29,0,161.442-67.119,169.705-154.13C432.926,354.107,486.347,298.351,486.347,230.347z&#10;&#9; M196.142,495.967c-85.167,0-154.455-69.288-154.455-154.455c0-68.511,43.302-144.469,79.627-196.128&#10;&#9;c30.982-44.06,62.314-78.409,74.828-91.618c11.011,11.62,36.584,39.599,63.624,76.105c-19.192,37.028-28.885,70.675-28.885,100.476&#10;&#9;c0,67.451,52.556,122.852,118.868,127.421C341.608,435.896,275.647,495.967,196.142,495.967z M358.614,342.046&#10;&#9;c-61.592,0-111.699-50.108-111.699-111.699c0-83.897,88.161-185.121,111.699-210.645c23.538,25.524,111.699,126.747,111.699,210.645&#10;&#9;C470.313,291.938,420.206,342.046,358.614,342.046z"/>
  <path d="M319.762,376.712c-4.17-1.478-8.755,0.703-10.235,4.877c-14.039,39.593-48.267,69.388-89.328,77.757&#10;&#9;c-4.339,0.884-7.139,5.118-6.255,9.456c0.775,3.798,4.115,6.418,7.847,6.418c0.53,0,1.069-0.053,1.61-0.164&#10;&#9;c46.54-9.485,85.332-43.247,101.238-88.109C326.118,382.774,323.935,378.192,319.762,376.712z"/>
  <path d="M188.121,461.498c-5.378-0.356-10.772-1.08-16.031-2.151c-4.338-0.884-8.571,1.915-9.456,6.254&#10;&#9;c-0.884,4.339,1.917,8.571,6.255,9.455c5.964,1.215,12.08,2.036,18.175,2.439c0.18,0.012,0.358,0.018,0.537,0.018&#10;&#9;c4.187,0,7.711-3.25,7.992-7.488C195.883,465.608,192.539,461.79,188.121,461.498z"/>
  <path d="M444.125,222.33c-4.427,0-8.017,3.589-8.017,8.017c0,42.731-34.764,77.495-77.495,77.495c-4.427,0-8.017,3.589-8.017,8.017&#10;&#9;c0,4.427,3.589,8.017,8.017,8.017c51.572,0,93.528-41.956,93.528-93.528C452.142,225.919,448.553,222.33,444.125,222.33z"/>
</svg>