<?xml version="1.0" encoding="utf-8"?>
<svg height="800px" width="800px" version="1.1" id="_x36_" viewBox="0 0 512 512" fill="#000000" xmlns="http://www.w3.org/2000/svg">
  <defs/>
  <g>
    <path style="fill: rgb(210, 208, 196); stroke: rgb(5, 5, 5); paint-order: stroke; stroke-width: 16px;" d="M 422.769 328.6 C 429.288 317.899 433.053 305.328 433.053 291.886 C 433.053 255.499 405.536 225.537 370.173 221.665 C 376.452 211.115 380.066 198.791 380.066 185.619 C 380.066 146.606 348.43 114.969 309.404 114.969 L 284.085 114.969 C 277.755 110.566 237.402 80.794 263.706 54.97 C 271.451 47.376 252.247 36.625 234.432 48.501 C 224.388 55.197 197.692 75.235 205.563 114.969 L 202.581 114.969 C 163.567 114.969 131.928 146.605 131.928 185.619 C 131.928 198.791 135.545 211.115 141.814 221.665 C 106.457 225.537 78.943 255.499 78.943 291.886 C 78.943 305.329 82.699 317.9 89.225 328.6 C 56.132 334.476 31 363.37 31 398.145 C 31 437.159 62.635 468.794 101.656 468.794 L 410.337 468.794 C 449.364 468.794 480.999 437.158 480.999 398.145 C 480.999 363.37 455.857 334.476 422.769 328.6 Z"/>
    <path style="fill:#efebe2;" d="M 422.769 328.6 C 429.288 317.899 433.053 305.328 433.053 291.886 C 433.053 255.499 405.536 225.537 370.173 221.665 C 376.452 211.115 380.066 198.791 380.066 185.619 C 380.066 146.606 348.43 114.969 309.404 114.969 L 284.085 114.969 C 281.697 113.314 274.508 108.059 267.85 100.781 L 267.85 468.794 L 410.338 468.794 C 449.365 468.794 481 437.158 481 398.145 C 480.999 363.37 455.857 334.476 422.769 328.6 Z"/>
    <path style="fill: rgba(186, 184, 171, 0.46); mix-blend-mode: multiply;" d="M 137.879 157.155 C 149.818 235.351 245.117 208.736 347.987 221.433 L 141.839 221.647 C 125.385 193.747 133.188 167.786 137.879 157.155 Z"/>
    <path style="fill: rgba(186, 184, 171, 0.46); transform-box: fill-box; transform-origin: 50% 50%; mix-blend-mode: multiply;" d="M 260.199 328.548 C 248.919 261.95 355.819 275.251 555.801 264.452 L 264.781 264.095 C 248.327 291.995 255.508 317.917 260.199 328.548 Z" transform="matrix(-1, 0, 0, -1, -122.664871, 0.039001)"/>
  </g>
</svg>