<?xml version="1.0" encoding="utf-8"?>
<svg height="100%" width="100%" viewBox="0 0 512 512" xmlns="http://www.w3.org/2000/svg">
  <defs/>
  <g transform="matrix(1, 0, 0, 1, 31, 43.206936)">
    <path style="fill: rgb(227, 203, 166); stroke: rgb(5, 5, 5); fill-rule: evenodd; paint-order: stroke; stroke-width: 16px;" d="M 391.769 285.393 C 398.288 274.692 402.053 262.121 402.053 248.679 C 402.053 212.292 374.536 182.33 339.173 178.458 C 345.452 167.908 349.066 155.584 349.066 142.412 C 349.066 103.399 317.43 71.762 278.404 71.762 L 253.085 71.762 C 246.755 67.359 206.402 37.587 232.706 11.763 C 240.451 4.169 221.247 -6.582 203.432 5.294 C 193.388 11.99 166.692 32.028 174.563 71.762 L 171.581 71.762 C 132.567 71.762 100.928 103.398 100.928 142.412 C 100.928 155.584 104.545 167.908 110.814 178.458 C 75.457 182.33 47.943 212.292 47.943 248.679 C 47.943 262.122 51.699 274.693 58.225 285.393 C 25.132 291.269 0 320.163 0 354.938 C 0 393.952 31.635 425.587 70.656 425.587 L 379.337 425.587 C 418.364 425.587 449.999 393.951 449.999 354.938 C 449.999 320.163 424.857 291.269 391.769 285.393 Z"/>
    <path style="fill:#f2dab6;" d="M 391.769 285.393 C 398.288 274.692 402.053 262.121 402.053 248.679 C 402.053 212.292 374.536 182.33 339.173 178.458 C 345.452 167.908 349.066 155.584 349.066 142.412 C 349.066 103.399 317.43 71.762 278.404 71.762 L 253.085 71.762 C 250.697 70.107 243.508 64.852 236.85 57.574 L 236.85 425.587 L 379.338 425.587 C 418.365 425.587 450 393.951 450 354.938 C 449.999 320.163 424.857 291.269 391.769 285.393 Z"/>
  </g>
  <path style="fill: rgba(180, 161, 131, 0.5); mix-blend-mode: multiply;" d="M 137.5 157.294 C 149.439 235.49 244.738 208.875 347.608 221.572 L 141.46 221.786 C 125.006 193.886 132.809 167.925 137.5 157.294 Z"/>
  <path style="transform-origin: 282.423px 296.266px; fill: rgba(180, 161, 131, 0.5); mix-blend-mode: multiply;" d="M 137.456 328.492 C 126.176 261.894 233.076 275.195 433.058 264.396 L 142.038 264.039 C 125.584 291.939 132.765 317.861 137.456 328.492 Z" transform="matrix(-1, 0, 0, -1, -0.000003, 0.000022)"/>
</svg>