<?xml version="1.0" encoding="utf-8"?>
<svg height="800px" width="800px" version="1.1" id="_x36_" viewBox="0 0 512 512" fill="#000000" xmlns="http://www.w3.org/2000/svg">
  <defs/>
  <g transform="matrix(0.878905, 0, 0, 0.878905, 30.999891, 43.206448)">
    <path style="fill: rgb(115, 135, 53); stroke-width: 16px; stroke: rgb(0, 0, 0); paint-order: stroke;" d="M445.747,324.715c7.417-12.176,11.701-26.479,11.701-41.773c0-41.4-31.308-75.49-71.544-79.896 c7.144-12.003,11.256-26.025,11.256-41.012c0-44.389-35.995-80.384-80.398-80.384h-28.807c-7.202-5.01-53.115-38.884-23.187-68.266 c8.812-8.64-13.038-20.873-33.307-7.36c-11.428,7.618-41.802,30.417-32.847,75.626h-3.392c-44.39,0-80.388,35.994-80.388,80.384 c0,14.986,4.115,29.008,11.248,41.012c-40.228,4.406-71.533,38.496-71.533,79.896c0,15.295,4.273,29.598,11.698,41.773 C28.595,331.4,0,364.275,0,403.841c0,44.39,35.994,80.384,80.391,80.384h351.211c44.404,0,80.398-35.995,80.398-80.384 C512,364.275,483.394,331.4,445.747,324.715z"/>
    <path style="fill:#a3bd5c;" d="M445.747,324.715c7.417-12.176,11.701-26.479,11.701-41.773c0-41.4-31.308-75.49-71.544-79.896 c7.144-12.003,11.256-26.025,11.256-41.012c0-44.389-35.995-80.384-80.398-80.384h-28.807 c-2.717-1.883-10.896-7.863-18.472-16.143v418.718h162.12c44.404,0,80.398-35.995,80.398-80.384 C512,364.275,483.394,331.4,445.747,324.715z"/>
    <g transform="matrix(1, 0, 0, 1, -374.182098, 89.378204)" style="mix-blend-mode: darken;">
      <path style="fill: rgba(97, 114, 44, 0.52); mix-blend-mode: multiply;" d="M 495.432 40.321 C 509.016 129.29 617.445 99.008 734.489 113.455 L 499.938 113.698 C 481.217 81.954 490.095 52.416 495.432 40.321 Z"/>
      <path style="fill: rgba(97, 114, 44, 0.52); transform-origin: 660.217px 198.685px; mix-blend-mode: multiply;" d="M 495.276 235.351 C 482.442 159.578 604.071 174.711 831.606 162.424 L 500.489 162.018 C 481.768 193.762 489.939 223.256 495.276 235.351 Z" transform="matrix(-1, 0, 0, -1, 0.000037, 0.000007)"/>
    </g>
  </g>
</svg>