<?xml version="1.0" encoding="utf-8"?>
<svg height="800px" width="800px" version="1.1" id="Layer_1" viewBox="0 0 512 512" xmlns="http://www.w3.org/2000/svg">
  <defs/>
  <g transform="matrix(1, 0, 0, 1, -4.517335, 30.745054)">
    <line style="fill: rgb(216, 216, 216); stroke-linecap: round; stroke: rgb(116, 204, 203); stroke-width: 14px;" x1="319.385" y1="170.319" x2="417.799" y2="170.319"/>
    <line style="fill: rgb(216, 216, 216); stroke-linecap: round; stroke: rgb(116, 204, 203); stroke-width: 14px;" x1="378.09" y1="170.319" x2="404.831" y2="143.578"/>
    <line style="fill: rgb(216, 216, 216); stroke-linecap: round; stroke: rgb(116, 204, 203); stroke-width: 14px;" x1="378.09" y1="170.319" x2="404.831" y2="197.06"/>
    <line style="fill: rgb(216, 216, 216); stroke-linecap: round; stroke: rgb(116, 204, 203); transform-origin: 357.741px 170.159px; stroke-width: 14px;" x1="357.74" y1="114.741" x2="357.74" y2="225.575"/>
    <line style="fill: rgb(216, 216, 216); stroke-linecap: round; stroke: rgb(116, 204, 203); stroke-width: 14px;" x1="330.999" y1="125.812" x2="357.74" y2="152.552"/>
    <line style="fill: rgb(216, 216, 216); stroke-linecap: round; stroke: rgb(116, 204, 203); stroke-width: 14px;" x1="357.74" y1="152.552" x2="384.48" y2="125.812"/>
    <line style="fill: rgb(216, 216, 216); stroke-linecap: round; stroke: rgb(116, 204, 203); stroke-width: 14px;" x1="330.999" y1="214.749" x2="357.74" y2="188.009"/>
    <line style="fill: rgb(216, 216, 216); stroke-linecap: round; stroke: rgb(116, 204, 203); stroke-width: 14px;" x1="357.74" y1="188.009" x2="384.48" y2="214.749"/>
  </g>
  <g>
    <path style="mix-blend-mode: darken; fill: rgb(34, 0, 255);" d="M 256 453.222 C 219.734 453.222 190.228 423.717 190.228 387.45 C 190.228 362.424 204.602 339.6 226.65 328.578 C 226.65 328.578 239.816 313.114 255.999 313.114 C 272.182 313.114 285.348 328.578 285.348 328.578 C 307.396 339.6 321.769 362.424 321.769 387.45 C 321.772 423.717 292.266 453.222 256 453.222 Z"/>
    <path style="fill: rgb(116, 204, 203);" d="M256,512c-68.676,0-124.55-55.873-124.55-124.55c0-44.713,23.593-85.428,61.985-107.717V62.565&#10;&#9;&#9;C193.435,28.067,221.501,0,256,0s62.565,28.067,62.565,62.565v217.169c38.392,22.289,61.985,63.004,61.985,107.717&#10;&#9;&#9;C380.55,456.127,324.676,512,256,512z M256,20.398c-23.251,0-42.167,18.915-42.167,42.167v223.207c0,3.817-2.131,7.313-5.522,9.064&#10;&#9;&#9;c-34.827,17.973-56.463,53.461-56.463,92.615c0,57.429,46.722,104.151,104.151,104.151s104.151-46.723,104.151-104.151&#10;&#9;&#9;c0-39.154-21.636-74.642-56.463-92.615c-3.391-1.75-5.522-5.247-5.522-9.064V62.565C298.167,39.314,279.251,20.398,256,20.398z"/>
    <path style="fill: rgb(116, 204, 203);" d="M 256 453.222 C 219.734 453.222 190.228 423.717 190.228 387.45 C 190.228 362.424 204.602 339.6 226.65 328.578 L 226.65 322.463 C 226.65 306.28 239.816 293.114 255.999 293.114 C 272.182 293.114 285.348 306.28 285.348 322.463 L 285.348 328.578 C 307.396 339.6 321.769 362.424 321.769 387.45 C 321.772 423.717 292.266 453.222 256 453.222 Z M 256 313.512 C 251.065 313.512 247.049 317.527 247.049 322.463 L 247.049 335.266 C 247.049 339.544 244.38 343.366 240.364 344.84 C 222.577 351.37 210.626 368.493 210.626 387.449 C 210.626 412.468 230.981 432.822 255.999 432.822 C 281.017 432.822 301.372 412.467 301.372 387.449 C 301.372 368.493 289.422 351.369 271.634 344.84 C 267.619 343.366 264.949 339.544 264.949 335.266 L 264.949 322.463 C 264.951 317.528 260.935 313.512 256 313.512 Z"/>
    <path style="fill: rgb(116, 204, 203);" d="M257.02,483.442c-36.89,0-70.006-20.536-86.426-53.594c-2.506-5.045-0.447-11.166,4.598-13.671&#10;&#9;&#9;c5.046-2.507,11.166-0.447,13.671,4.598c12.951,26.072,39.067,42.269,68.157,42.269c5.633,0,10.199,4.566,10.199,10.199&#10;&#9;&#9;S262.653,483.442,257.02,483.442z"/>
    <path style="fill: rgb(116, 204, 203);" d="M170.804,399.809c-5.492,0-10.025-4.368-10.189-9.895c-0.029-0.969-0.043-1.943-0.043-2.919&#10;&#9;&#9;c0-5.633,4.566-10.199,10.199-10.199c5.633,0,10.199,4.566,10.199,10.199c0,0.773,0.011,1.544,0.035,2.312&#10;&#9;&#9;c0.168,5.63-4.26,10.331-9.891,10.498C171.01,399.808,170.907,399.809,170.804,399.809z"/>
  </g>
</svg>