<?xml version="1.0" encoding="utf-8"?>
<svg height="800px" width="800px" version="1.1" id="Layer_1" viewBox="0 0 512 512" xmlns="http://www.w3.org/2000/svg">
  <defs/>
  <path style="stroke: rgb(0, 0, 0); fill: rgb(255, 0, 0); stroke-width: 11px;" d="M 291.161 83.878 C 288.913 131.081 331.9 107.819 339.809 43.521 C 344.559 43.713 373.55 121.567 337.104 161.162 C 373.55 165.479 373.55 124.952 382.255 111.309 C 381.465 165.303 394.348 173.56 348.204 241.024 C 357.194 243.204 373.55 205.581 404.702 212.069 C 364.514 257.311 373.55 337.572 412.372 263.409 C 423.322 324.595 366.891 407.942 362.681 393.931 L 279.514 298.509 L 291.161 83.878 Z"/>
  <path style="fill: rgb(255, 87, 1);" d="M 277.76 123.371 C 263.971 142.408 327.544 154.537 336.314 98.609 C 340.605 98.786 351.021 135.49 315.554 165.454 C 323.206 177.133 326.949 192.112 353.814 174.867 C 334.053 233.49 343.622 208.857 317.47 249.088 C 355.716 266.452 345.604 260.735 374.55 242.336 C 327.906 288.686 374.55 340.255 392.24 307.631 C 365.053 395.491 311.3 426.542 336.728 403.576 L 267.241 321.38 L 277.76 123.371 Z"/>
  <g>
    <path style="fill: rgb(255, 87, 1);" d="M 256 512 C 187.324 512 131.45 456.127 131.45 387.45 C 131.45 342.737 155.043 302.022 193.435 279.733 L 193.435 62.565 C 193.435 28.067 221.501 0 256 0 C 290.499 0 318.565 28.067 318.565 62.565 L 318.565 279.734 C 356.957 302.023 380.55 342.738 380.55 387.451 C 380.55 456.127 324.676 512 256 512 Z"/>
    <path style="" d="M256,512c-68.676,0-124.55-55.873-124.55-124.55c0-44.713,23.593-85.428,61.985-107.717V62.565&#10;&#9;&#9;C193.435,28.067,221.501,0,256,0s62.565,28.067,62.565,62.565v217.169c38.392,22.289,61.985,63.004,61.985,107.717&#10;&#9;&#9;C380.55,456.127,324.676,512,256,512z M256,20.398c-23.251,0-42.167,18.915-42.167,42.167v223.207c0,3.817-2.131,7.313-5.522,9.064&#10;&#9;&#9;c-34.827,17.973-56.463,53.461-56.463,92.615c0,57.429,46.722,104.151,104.151,104.151s104.151-46.723,104.151-104.151&#10;&#9;&#9;c0-39.154-21.636-74.642-56.463-92.615c-3.391-1.75-5.522-5.247-5.522-9.064V62.565C298.167,39.314,279.251,20.398,256,20.398z"/>
    <path style="" d="M 256 453.222 C 219.734 453.222 190.228 423.717 190.228 387.45 C 190.228 362.424 204.602 339.6 226.65 328.578 L 226.65 62.463 C 226.65 46.28 239.816 33.114 255.999 33.114 C 272.182 33.114 285.348 46.28 285.348 62.463 L 285.348 328.578 C 307.396 339.6 321.769 362.424 321.769 387.45 C 321.772 423.717 292.266 453.222 256 453.222 Z M 256 53.512 C 251.065 53.512 247.049 57.527 247.049 62.463 L 247.049 335.266 C 247.049 339.544 244.38 343.366 240.364 344.84 C 222.577 351.37 210.626 368.493 210.626 387.449 C 210.626 412.468 230.981 432.822 255.999 432.822 C 281.017 432.822 301.372 412.467 301.372 387.449 C 301.372 368.493 289.422 351.369 271.634 344.84 C 267.619 343.366 264.949 339.544 264.949 335.266 L 264.949 62.463 C 264.951 57.528 260.935 53.512 256 53.512 Z"/>
    <path style="" d="M257.02,483.442c-36.89,0-70.006-20.536-86.426-53.594c-2.506-5.045-0.447-11.166,4.598-13.671&#10;&#9;&#9;c5.046-2.507,11.166-0.447,13.671,4.598c12.951,26.072,39.067,42.269,68.157,42.269c5.633,0,10.199,4.566,10.199,10.199&#10;&#9;&#9;S262.653,483.442,257.02,483.442z"/>
    <path style="" d="M170.804,399.809c-5.492,0-10.025-4.368-10.189-9.895c-0.029-0.969-0.043-1.943-0.043-2.919&#10;&#9;&#9;c0-5.633,4.566-10.199,10.199-10.199c5.633,0,10.199,4.566,10.199,10.199c0,0.773,0.011,1.544,0.035,2.312&#10;&#9;&#9;c0.168,5.63-4.26,10.331-9.891,10.498C171.01,399.808,170.907,399.809,170.804,399.809z"/>
    <path style="mix-blend-mode: darken; fill: rgb(255, 0, 0);" d="M 256 453.222 C 219.734 453.222 190.228 423.717 190.228 387.45 C 190.228 362.424 204.602 339.6 226.65 328.578 L 226.65 302.463 C 226.65 286.28 239.816 33.114 255.999 33.114 C 272.182 33.114 285.348 286.28 285.348 302.463 L 285.348 328.578 C 307.396 339.6 321.769 362.424 321.769 387.45 C 321.772 423.717 292.266 453.222 256 453.222 Z"/>
  </g>
  <path style="mix-blend-mode: screen; fill: rgb(253, 115, 19); visibility: hidden;" d="M 255.063 512 C 15.587 512 98.915 0.209 258.592 0 C 418.57 -0.21 504.06 512 255.063 512 Z"/>
</svg>